<svg id="svg" version="1.1" xmlns="http://www.w3.org/2000/svg" xmlns:xlink="http://www.w3.org/1999/xlink" width="400" height="400" viewBox="0, 0, 400,400"><g id="svgg"><path id="path0" d="M256.000 98.811 C 251.597 99.379,248.171 100.896,244.237 104.021 C 242.099 105.719,240.764 107.173,237.646 111.200 C 236.788 112.308,233.703 112.665,224.200 112.758 C 221.780 112.782,218.360 113.051,216.600 113.357 C 214.840 113.663,212.050 114.033,210.400 114.180 C 207.629 114.427,201.405 115.447,196.600 116.442 C 195.500 116.669,193.160 117.129,191.400 117.462 C 189.640 117.796,188.020 118.217,187.800 118.397 C 187.580 118.577,186.519 118.856,185.441 119.017 C 184.364 119.177,183.014 119.553,182.441 119.852 C 181.869 120.151,181.181 120.396,180.913 120.398 C 180.646 120.399,177.856 121.285,174.713 122.367 C 166.926 125.048,165.591 125.535,164.200 126.201 C 163.540 126.517,161.200 127.597,159.000 128.600 C 156.800 129.604,154.522 130.689,153.938 131.012 C 153.354 131.336,152.649 131.600,152.370 131.600 C 152.091 131.600,151.579 131.851,151.231 132.157 C 150.884 132.464,149.310 133.409,147.733 134.257 C 139.707 138.576,126.926 147.094,122.349 151.175 C 114.874 157.841,110.069 162.374,107.908 164.800 C 106.438 166.450,104.670 168.430,103.978 169.200 C 101.041 172.468,95.342 180.536,93.318 184.289 C 90.174 190.121,88.037 194.527,87.789 195.687 C 87.634 196.409,87.358 197.187,87.175 197.416 C 86.194 198.641,84.050 209.443,83.764 214.600 C 83.299 222.978,85.749 232.668,89.815 238.535 C 90.447 239.447,90.144 240.550,88.315 244.000 C 84.260 251.648,83.339 261.903,86.016 269.600 C 87.464 273.763,92.291 281.228,94.242 282.319 C 94.536 282.484,95.547 283.348,96.488 284.239 C 101.217 288.714,117.190 296.447,121.620 296.406 C 121.961 296.403,122.411 296.557,122.620 296.749 C 123.484 297.543,136.201 300.106,142.800 300.816 C 144.890 301.040,148.946 301.489,151.813 301.812 C 157.843 302.492,184.456 302.645,188.027 302.020 C 189.222 301.810,192.890 301.439,196.177 301.194 C 199.465 300.950,203.147 300.491,204.361 300.175 C 205.575 299.859,207.442 299.600,208.510 299.600 C 209.579 299.600,210.825 299.401,211.280 299.157 C 211.734 298.914,213.388 298.486,214.953 298.205 C 218.200 297.624,223.570 296.174,225.514 295.354 C 226.236 295.049,227.226 294.799,227.714 294.798 C 228.201 294.796,229.062 294.554,229.627 294.259 C 230.191 293.965,231.168 293.594,231.796 293.437 C 232.738 293.200,240.752 289.354,244.662 287.262 C 245.801 286.653,245.714 285.260,244.446 283.800 C 244.064 283.360,243.492 282.613,243.176 282.139 C 242.859 281.666,241.790 280.225,240.800 278.937 C 239.810 277.650,238.507 275.877,237.905 274.998 C 237.303 274.119,236.382 272.869,235.858 272.219 L 234.906 271.038 231.153 272.899 C 227.351 274.784,225.099 275.701,222.200 276.541 C 221.320 276.797,220.419 277.122,220.198 277.266 C 219.561 277.678,211.643 279.644,209.000 280.045 C 207.680 280.246,206.056 280.588,205.392 280.806 C 204.728 281.023,202.388 281.373,200.192 281.583 C 197.996 281.793,195.300 282.151,194.200 282.379 C 184.735 284.339,148.385 284.096,143.074 282.037 C 142.455 281.796,141.103 281.600,140.071 281.600 C 139.039 281.600,137.566 281.403,136.797 281.161 C 136.029 280.920,134.140 280.487,132.600 280.199 C 128.830 279.493,124.376 278.246,122.782 277.451 C 122.064 277.093,121.218 276.800,120.900 276.800 C 120.583 276.800,119.846 276.542,119.262 276.227 C 118.678 275.912,117.120 275.167,115.800 274.571 C 105.973 270.138,100.315 261.565,103.348 255.701 C 104.726 253.037,105.689 252.953,109.200 255.191 C 110.339 255.917,115.971 258.377,117.084 258.635 C 117.698 258.777,119.190 259.299,120.400 259.794 C 123.477 261.052,128.310 262.258,134.200 263.236 C 135.520 263.456,138.220 263.922,140.200 264.273 C 144.858 265.098,164.102 265.459,171.600 264.862 C 178.082 264.346,181.353 263.891,189.500 262.371 C 194.147 261.503,207.686 257.247,208.580 256.372 C 208.789 256.167,209.215 256.000,209.526 256.000 C 210.260 256.000,217.611 251.558,219.972 249.687 C 233.319 239.113,233.723 222.368,220.873 212.296 C 217.276 209.475,216.970 209.300,209.800 205.963 C 208.663 205.434,205.157 204.482,201.200 203.628 C 199.330 203.225,197.080 202.689,196.200 202.438 C 191.790 201.178,172.913 201.041,165.000 202.212 C 159.282 203.058,151.960 204.378,151.540 204.637 C 151.328 204.768,150.220 205.030,149.077 205.218 C 146.536 205.638,142.087 206.747,141.000 207.231 C 140.560 207.427,138.400 208.209,136.200 208.968 C 128.359 211.674,127.673 211.945,124.321 213.648 C 123.507 214.062,122.621 214.400,122.352 214.400 C 122.083 214.400,121.579 214.647,121.231 214.949 C 120.884 215.250,118.890 216.375,116.800 217.449 C 114.710 218.522,112.791 219.596,112.537 219.835 C 112.282 220.074,111.112 220.878,109.937 221.622 C 108.761 222.365,107.710 223.088,107.600 223.227 C 106.423 224.717,104.277 224.497,103.397 222.795 C 101.784 219.675,103.169 206.516,105.480 203.011 C 105.766 202.577,106.000 201.922,106.000 201.555 C 106.000 199.171,112.318 188.918,118.400 181.431 C 124.265 174.212,138.720 161.914,147.823 156.400 C 148.731 155.850,150.198 154.918,151.082 154.329 C 154.049 152.355,168.738 144.808,169.624 144.803 C 169.966 144.802,170.596 144.536,171.024 144.213 C 171.451 143.890,172.070 143.619,172.400 143.610 C 172.730 143.602,173.540 143.312,174.200 142.967 C 174.860 142.621,176.750 141.842,178.400 141.237 C 180.050 140.631,182.030 139.902,182.800 139.618 C 183.570 139.333,185.100 138.893,186.200 138.640 C 187.300 138.387,188.593 137.960,189.074 137.690 C 189.554 137.421,190.598 137.200,191.394 137.200 C 192.189 137.200,193.326 136.952,193.920 136.649 C 195.207 135.992,206.924 133.600,208.851 133.600 C 209.593 133.600,211.640 133.342,213.400 133.026 C 216.738 132.426,225.403 131.584,231.142 131.303 C 234.618 131.132,236.400 131.877,236.400 133.500 C 236.400 137.710,246.864 147.121,252.800 148.248 C 253.570 148.395,254.686 148.759,255.280 149.057 C 260.241 151.551,271.977 147.776,278.409 141.618 C 281.748 138.422,281.637 138.458,284.124 139.780 C 296.477 146.348,300.459 154.435,295.569 163.024 C 292.797 167.892,287.071 173.528,269.400 188.782 C 261.048 195.992,251.307 205.896,250.408 208.091 C 250.294 208.371,249.524 209.639,248.699 210.910 C 245.450 215.908,243.443 220.642,241.963 226.800 C 240.937 231.068,240.658 244.228,241.526 247.400 C 241.767 248.280,242.231 249.990,242.557 251.200 C 243.737 255.575,245.886 260.381,247.864 263.073 C 248.379 263.774,248.800 264.526,248.800 264.745 C 248.800 264.964,249.025 265.381,249.300 265.671 C 249.575 265.962,250.340 267.003,251.000 267.985 C 257.670 277.904,274.265 289.475,284.100 291.063 L 285.600 291.305 285.600 281.680 L 285.600 272.054 284.438 271.227 C 283.799 270.772,283.027 270.400,282.722 270.400 C 279.247 270.400,266.621 258.284,263.516 251.971 C 259.468 243.740,258.854 239.280,260.649 231.162 C 262.705 221.869,271.428 210.976,285.610 199.989 C 286.814 199.056,287.980 198.091,288.200 197.845 C 288.420 197.598,290.844 195.417,293.588 192.998 C 304.080 183.745,309.881 177.224,312.622 171.600 C 313.211 170.390,313.929 168.945,314.217 168.388 C 315.753 165.421,316.885 159.151,316.701 154.641 C 316.153 141.278,307.762 130.451,291.646 122.314 C 285.569 119.245,285.272 118.982,284.234 115.762 C 280.472 104.092,268.902 97.145,256.000 98.811 M260.686 114.289 C 265.769 116.602,267.600 119.118,267.600 123.787 C 267.600 136.041,250.809 137.741,248.026 125.769 C 246.395 118.757,254.452 111.451,260.686 114.289 M194.451 222.407 C 197.009 223.026,199.439 223.716,199.851 223.940 C 200.263 224.165,201.186 224.531,201.902 224.754 C 205.097 225.750,209.200 229.258,209.200 230.994 C 209.200 234.151,201.136 239.665,192.800 242.206 C 191.590 242.575,189.921 243.130,189.092 243.439 C 188.262 243.747,187.070 244.000,186.442 244.000 C 185.814 244.000,184.513 244.282,183.550 244.627 C 182.588 244.971,180.630 245.405,179.200 245.591 C 169.412 246.862,166.370 247.167,161.400 247.374 C 152.946 247.726,137.273 246.223,132.429 244.595 C 131.455 244.268,130.246 244.000,129.742 244.000 C 129.239 244.000,128.236 243.752,127.514 243.448 C 126.791 243.145,124.580 242.380,122.600 241.748 C 116.564 239.823,117.296 238.416,126.926 233.446 C 129.745 231.991,132.364 230.800,132.746 230.800 C 133.128 230.800,133.646 230.594,133.898 230.342 C 134.423 229.817,137.038 228.809,142.200 227.143 C 148.327 225.165,149.349 224.870,151.000 224.603 C 151.880 224.460,153.410 224.089,154.400 223.777 C 164.054 220.741,184.655 220.036,194.451 222.407 " stroke="none" fill="#f9faf8" fill-rule="evenodd"></path><path id="path1" d="M75.600 0.400 C 75.600 0.635,74.210 0.800,72.229 0.800 C 69.765 0.800,68.696 0.962,68.257 1.400 C 67.845 1.812,66.830 2.000,65.016 2.000 C 63.037 2.000,62.317 2.150,62.145 2.600 C 61.988 3.008,61.349 3.200,60.145 3.200 C 58.941 3.200,58.301 3.392,58.145 3.800 C 57.988 4.207,57.350 4.400,56.157 4.400 C 54.862 4.400,54.400 4.558,54.400 5.000 C 54.400 5.400,54.000 5.600,53.200 5.600 C 52.453 5.600,52.038 5.789,52.100 6.100 C 52.158 6.390,51.695 6.657,51.000 6.735 C 50.340 6.809,49.656 7.124,49.480 7.435 C 49.304 7.746,48.713 8.000,48.167 8.000 C 47.598 8.000,47.052 8.298,46.887 8.700 C 46.701 9.153,46.113 9.424,45.218 9.468 C 44.458 9.505,43.628 9.820,43.374 10.168 C 43.120 10.516,42.707 10.800,42.456 10.800 C 42.205 10.800,42.000 11.070,42.000 11.400 C 42.000 11.800,41.600 12.000,40.800 12.000 C 40.000 12.000,39.600 12.200,39.600 12.600 C 39.600 12.930,39.246 13.200,38.813 13.200 C 38.277 13.200,38.099 13.392,38.255 13.800 C 38.434 14.264,38.162 14.400,37.055 14.400 C 35.948 14.400,35.677 14.536,35.855 15.000 C 36.015 15.416,35.828 15.600,35.243 15.600 C 34.760 15.600,34.400 15.857,34.400 16.200 C 34.400 16.600,34.000 16.800,33.200 16.800 C 32.540 16.800,32.021 16.935,32.047 17.100 C 32.222 18.203,31.914 19.200,31.400 19.200 C 31.070 19.200,30.440 19.560,30.000 20.000 C 29.560 20.440,28.930 20.800,28.600 20.800 C 28.270 20.800,28.000 21.070,28.000 21.400 C 28.000 21.730,27.730 22.000,27.400 22.000 C 27.070 22.000,26.800 22.180,26.800 22.400 C 26.800 22.919,25.319 24.400,24.800 24.400 C 24.580 24.400,24.400 24.670,24.400 25.000 C 24.400 25.400,24.000 25.600,23.200 25.600 C 22.540 25.600,22.021 25.735,22.047 25.900 C 22.222 27.003,21.914 28.000,21.400 28.000 C 21.070 28.000,20.800 28.279,20.800 28.619 C 20.800 29.147,20.002 30.036,18.200 31.516 C 17.980 31.697,17.629 31.866,17.420 31.893 C 17.211 31.919,16.897 32.326,16.723 32.796 C 16.549 33.266,16.213 33.532,15.977 33.386 C 15.740 33.239,15.580 33.363,15.621 33.660 C 15.830 35.182,15.577 36.077,15.000 35.855 C 14.536 35.677,14.400 35.948,14.400 37.055 C 14.400 38.162,14.264 38.434,13.800 38.255 C 13.392 38.099,13.200 38.277,13.200 38.813 C 13.200 39.246,12.930 39.600,12.600 39.600 C 12.200 39.600,12.000 40.000,12.000 40.800 C 12.000 41.600,11.800 42.000,11.400 42.000 C 11.070 42.000,10.800 42.205,10.800 42.456 C 10.800 42.707,10.512 43.123,10.159 43.380 C 9.807 43.638,9.472 44.447,9.414 45.178 C 9.357 45.909,9.015 46.672,8.655 46.873 C 8.295 47.075,8.000 47.672,8.000 48.200 C 8.000 48.728,7.746 49.304,7.435 49.480 C 7.124 49.656,6.809 50.340,6.735 51.000 C 6.657 51.695,6.390 52.158,6.100 52.100 C 5.789 52.038,5.600 52.453,5.600 53.200 C 5.600 54.000,5.400 54.400,5.000 54.400 C 4.558 54.400,4.400 54.862,4.400 56.157 C 4.400 57.350,4.207 57.988,3.800 58.145 C 3.392 58.301,3.200 58.941,3.200 60.145 C 3.200 61.349,3.008 61.988,2.600 62.145 C 2.150 62.317,2.000 63.037,2.000 65.016 C 2.000 66.830,1.812 67.845,1.400 68.257 C 0.962 68.696,0.800 69.765,0.800 72.229 C 0.800 74.210,0.635 75.600,0.400 75.600 C 0.134 75.600,0.000 117.533,0.000 200.600 C 0.000 283.667,0.134 325.600,0.400 325.600 C 0.633 325.600,0.800 326.933,0.800 328.800 C 0.800 331.378,0.917 332.000,1.400 332.000 C 1.876 332.000,2.000 332.579,2.000 334.813 C 2.000 336.944,2.145 337.681,2.600 337.855 C 3.019 338.016,3.200 338.671,3.200 340.030 C 3.200 341.594,3.317 341.930,3.800 341.745 C 4.285 341.559,4.400 341.906,4.400 343.557 C 4.400 345.106,4.545 345.600,5.000 345.600 C 5.400 345.600,5.600 346.000,5.600 346.800 C 5.600 347.547,5.789 347.962,6.100 347.900 C 6.390 347.842,6.657 348.305,6.735 349.000 C 6.809 349.660,7.124 350.344,7.435 350.520 C 7.774 350.712,8.000 351.478,8.000 352.432 C 8.000 353.445,8.209 354.105,8.572 354.245 C 8.887 354.365,9.327 354.990,9.551 355.632 C 9.775 356.274,10.148 356.800,10.379 356.800 C 10.611 356.800,10.800 357.340,10.800 358.000 C 10.800 358.800,11.000 359.200,11.400 359.200 C 11.730 359.200,12.000 359.470,12.000 359.800 C 12.000 360.130,12.270 360.400,12.600 360.400 C 12.933 360.400,13.200 360.756,13.200 361.200 C 13.200 361.640,13.425 361.955,13.700 361.900 C 13.999 361.840,14.250 362.322,14.325 363.100 C 14.403 363.905,14.669 364.400,15.025 364.400 C 15.567 364.400,15.788 365.120,15.621 366.340 C 15.580 366.637,15.740 366.761,15.977 366.614 C 16.213 366.468,16.574 366.765,16.778 367.274 C 16.982 367.783,17.161 368.045,17.175 367.854 C 17.228 367.123,22.022 372.556,22.094 373.431 C 22.138 373.954,22.496 374.436,22.925 374.549 C 23.341 374.657,23.562 374.938,23.417 375.173 C 23.272 375.408,23.433 375.600,23.776 375.600 C 24.119 375.600,24.400 375.881,24.400 376.224 C 24.400 376.567,24.582 376.735,24.803 376.598 C 25.025 376.461,25.374 376.765,25.578 377.274 C 25.782 377.783,25.961 378.043,25.975 377.851 C 25.989 377.659,26.268 377.724,26.596 377.996 C 26.923 378.268,27.093 378.650,26.972 378.845 C 26.851 379.040,27.205 379.200,27.758 379.200 C 28.703 379.200,30.800 380.835,30.800 381.572 C 30.800 381.756,31.178 382.006,31.640 382.126 C 32.102 382.247,32.374 382.518,32.245 382.728 C 32.115 382.937,32.385 383.207,32.845 383.328 C 33.338 383.457,33.566 383.732,33.400 384.000 C 33.239 384.260,33.350 384.422,33.660 384.379 C 34.894 384.210,35.600 384.436,35.600 385.000 C 35.600 385.330,35.851 385.600,36.157 385.600 C 36.464 385.600,36.818 385.870,36.945 386.200 C 37.079 386.551,37.679 386.800,38.387 386.800 C 39.199 386.800,39.600 386.999,39.600 387.400 C 39.600 387.730,39.870 388.000,40.200 388.000 C 40.530 388.000,40.800 388.270,40.800 388.600 C 40.800 389.000,41.200 389.200,42.000 389.200 C 42.660 389.200,43.200 389.384,43.200 389.609 C 43.200 389.833,43.695 390.235,44.300 390.500 C 44.905 390.766,45.544 391.212,45.720 391.492 C 45.896 391.771,46.472 392.000,47.000 392.000 C 47.528 392.000,48.104 392.225,48.280 392.500 C 48.606 393.010,48.707 393.035,50.800 393.140 C 51.526 393.176,52.000 393.419,52.000 393.753 C 52.000 394.058,52.378 394.406,52.840 394.526 C 53.303 394.647,53.562 394.938,53.417 395.173 C 53.245 395.451,53.773 395.600,54.934 395.600 C 56.148 395.600,56.788 395.791,56.945 396.200 C 57.102 396.611,57.745 396.800,58.987 396.800 C 60.332 396.800,60.800 396.955,60.800 397.400 C 60.800 397.879,61.395 398.000,63.757 398.000 C 66.017 398.000,66.769 398.142,66.945 398.600 C 67.114 399.042,67.812 399.200,69.587 399.200 C 70.929 399.200,72.000 399.378,72.000 399.600 C 72.000 399.866,114.933 400.000,200.000 400.000 C 285.067 400.000,328.000 399.866,328.000 399.600 C 328.000 399.367,329.333 399.200,331.200 399.200 C 333.778 399.200,334.400 399.083,334.400 398.600 C 334.400 398.133,334.933 398.000,336.800 398.000 C 338.667 398.000,339.200 397.867,339.200 397.400 C 339.200 396.955,339.668 396.800,341.013 396.800 C 342.255 396.800,342.898 396.611,343.055 396.200 C 343.212 395.793,343.850 395.600,345.043 395.600 C 346.235 395.600,346.768 395.439,346.700 395.100 C 346.640 394.801,347.122 394.550,347.900 394.475 C 348.705 394.397,349.200 394.131,349.200 393.775 C 349.200 393.459,349.470 393.173,349.800 393.140 C 350.130 393.107,350.625 393.062,350.900 393.040 C 351.175 393.018,351.583 392.767,351.808 392.482 C 352.032 392.197,352.644 391.932,353.169 391.892 C 353.701 391.852,354.203 391.509,354.306 391.115 C 354.408 390.727,354.652 390.509,354.849 390.630 C 355.434 390.992,356.800 390.392,356.800 389.773 C 356.800 389.403,357.225 389.200,358.000 389.200 C 358.800 389.200,359.200 389.000,359.200 388.600 C 359.200 388.270,359.476 388.000,359.813 388.000 C 360.149 388.000,360.529 387.730,360.655 387.400 C 360.782 387.070,361.322 386.800,361.855 386.800 C 362.389 386.800,362.929 386.530,363.055 386.200 C 363.187 385.858,363.783 385.600,364.443 385.600 C 365.327 385.600,365.600 385.414,365.600 384.813 C 365.600 384.242,365.784 384.096,366.266 384.281 C 366.730 384.459,366.839 384.386,366.625 384.041 C 366.428 383.722,366.619 383.468,367.160 383.326 C 367.622 383.206,368.000 382.858,368.000 382.553 C 368.000 382.249,368.270 382.000,368.600 382.000 C 368.930 382.000,369.200 381.685,369.200 381.300 C 369.200 380.822,369.542 380.580,370.278 380.537 C 370.871 380.503,371.566 380.188,371.822 379.837 C 372.078 379.487,372.504 379.200,372.768 379.200 C 373.031 379.200,373.149 379.040,373.028 378.845 C 372.907 378.650,373.077 378.268,373.404 377.996 C 373.732 377.724,374.011 377.659,374.025 377.851 C 374.039 378.043,374.218 377.783,374.422 377.274 C 374.626 376.765,374.975 376.461,375.197 376.598 C 375.418 376.735,375.600 376.567,375.600 376.224 C 375.600 375.881,375.881 375.600,376.224 375.600 C 376.567 375.600,376.735 375.418,376.598 375.197 C 376.461 374.975,376.765 374.626,377.274 374.422 C 377.783 374.218,378.043 374.039,377.851 374.025 C 377.659 374.011,377.724 373.732,377.996 373.404 C 378.268 373.077,378.650 372.907,378.845 373.028 C 379.040 373.149,379.200 373.031,379.200 372.768 C 379.200 372.504,379.487 372.078,379.837 371.822 C 380.188 371.566,380.503 370.871,380.537 370.278 C 380.580 369.542,380.822 369.200,381.300 369.200 C 381.685 369.200,382.000 368.930,382.000 368.600 C 382.000 368.270,382.249 368.000,382.553 368.000 C 382.858 368.000,383.206 367.622,383.326 367.160 C 383.468 366.619,383.722 366.428,384.041 366.625 C 384.386 366.839,384.459 366.730,384.281 366.266 C 384.096 365.784,384.242 365.600,384.813 365.600 C 385.414 365.600,385.600 365.327,385.600 364.443 C 385.600 363.783,385.858 363.187,386.200 363.055 C 386.530 362.929,386.800 362.389,386.800 361.855 C 386.800 361.322,387.070 360.782,387.400 360.655 C 387.730 360.529,388.000 360.149,388.000 359.813 C 388.000 359.476,388.270 359.200,388.600 359.200 C 389.000 359.200,389.200 358.800,389.200 358.000 C 389.200 357.225,389.403 356.800,389.773 356.800 C 390.392 356.800,390.992 355.434,390.630 354.849 C 390.509 354.652,390.727 354.408,391.115 354.306 C 391.509 354.203,391.852 353.701,391.892 353.169 C 391.932 352.644,392.197 352.032,392.482 351.808 C 392.767 351.583,393.018 351.175,393.040 350.900 C 393.062 350.625,393.107 350.130,393.140 349.800 C 393.173 349.470,393.459 349.200,393.775 349.200 C 394.131 349.200,394.397 348.705,394.475 347.900 C 394.550 347.122,394.801 346.640,395.100 346.700 C 395.439 346.768,395.600 346.235,395.600 345.043 C 395.600 343.850,395.793 343.212,396.200 343.055 C 396.611 342.898,396.800 342.255,396.800 341.013 C 396.800 339.668,396.955 339.200,397.400 339.200 C 397.867 339.200,398.000 338.667,398.000 336.800 C 398.000 334.933,398.133 334.400,398.600 334.400 C 399.083 334.400,399.200 333.778,399.200 331.200 C 399.200 329.333,399.367 328.000,399.600 328.000 C 399.866 328.000,400.000 285.267,400.000 200.600 C 400.000 115.933,399.866 73.200,399.600 73.200 C 399.369 73.200,399.200 71.929,399.200 70.187 C 399.200 67.879,399.060 67.121,398.600 66.945 C 398.142 66.769,398.000 66.017,398.000 63.757 C 398.000 61.395,397.879 60.800,397.400 60.800 C 396.955 60.800,396.800 60.332,396.800 58.987 C 396.800 57.745,396.611 57.102,396.200 56.945 C 395.791 56.788,395.600 56.148,395.600 54.934 C 395.600 53.773,395.451 53.245,395.173 53.417 C 394.938 53.562,394.647 53.303,394.526 52.840 C 394.406 52.378,394.058 52.000,393.753 52.000 C 393.419 52.000,393.176 51.526,393.140 50.800 C 393.035 48.707,393.010 48.606,392.500 48.280 C 392.225 48.104,392.000 47.528,392.000 47.000 C 392.000 46.472,391.771 45.896,391.492 45.720 C 391.212 45.544,390.766 44.905,390.500 44.300 C 390.235 43.695,389.833 43.200,389.609 43.200 C 389.384 43.200,389.200 42.660,389.200 42.000 C 389.200 41.200,389.000 40.800,388.600 40.800 C 388.270 40.800,388.000 40.524,388.000 40.187 C 388.000 39.851,387.730 39.471,387.400 39.345 C 387.070 39.218,386.800 38.678,386.800 38.145 C 386.800 37.611,386.530 37.071,386.200 36.945 C 385.870 36.818,385.600 36.464,385.600 36.157 C 385.600 35.851,385.330 35.600,385.000 35.600 C 384.436 35.600,384.210 34.894,384.379 33.660 C 384.422 33.350,384.260 33.239,384.000 33.400 C 383.732 33.566,383.457 33.338,383.328 32.845 C 383.207 32.385,382.937 32.115,382.728 32.245 C 382.518 32.374,382.247 32.102,382.126 31.640 C 382.006 31.178,381.756 30.800,381.572 30.800 C 380.835 30.800,379.200 28.703,379.200 27.758 C 379.200 27.205,379.040 26.851,378.845 26.972 C 378.650 27.093,378.268 26.923,377.996 26.596 C 377.724 26.268,377.659 25.989,377.851 25.975 C 378.043 25.961,377.783 25.782,377.274 25.578 C 376.765 25.374,376.461 25.025,376.598 24.803 C 376.735 24.582,376.567 24.400,376.224 24.400 C 375.881 24.400,375.600 24.119,375.600 23.776 C 375.600 23.433,375.418 23.265,375.197 23.402 C 374.975 23.539,374.626 23.235,374.422 22.726 C 374.218 22.217,374.039 21.957,374.025 22.149 C 374.011 22.341,373.732 22.276,373.404 22.004 C 373.077 21.732,372.907 21.350,373.028 21.155 C 373.149 20.960,372.805 20.800,372.266 20.800 C 371.339 20.800,366.983 17.234,367.836 17.175 C 368.036 17.161,367.783 16.982,367.274 16.778 C 366.765 16.574,366.468 16.213,366.614 15.977 C 366.761 15.740,366.637 15.580,366.340 15.621 C 365.120 15.788,364.400 15.567,364.400 15.025 C 364.400 14.669,363.905 14.403,363.100 14.325 C 362.322 14.250,361.840 13.999,361.900 13.700 C 361.955 13.425,361.640 13.200,361.200 13.200 C 360.756 13.200,360.400 12.933,360.400 12.600 C 360.400 12.270,360.130 12.000,359.800 12.000 C 359.470 12.000,359.200 11.730,359.200 11.400 C 359.200 11.000,358.800 10.800,358.000 10.800 C 357.340 10.800,356.800 10.611,356.800 10.379 C 356.800 10.148,356.274 9.775,355.632 9.551 C 354.990 9.327,354.365 8.887,354.245 8.572 C 354.105 8.209,353.445 8.000,352.432 8.000 C 351.478 8.000,350.712 7.774,350.520 7.435 C 350.344 7.124,349.660 6.809,349.000 6.735 C 348.305 6.657,347.842 6.390,347.900 6.100 C 347.962 5.789,347.547 5.600,346.800 5.600 C 346.000 5.600,345.600 5.400,345.600 5.000 C 345.600 4.605,345.205 4.400,344.443 4.400 C 343.783 4.400,343.187 4.142,343.055 3.800 C 342.887 3.360,342.193 3.200,340.455 3.200 C 338.718 3.200,338.024 3.040,337.855 2.600 C 337.681 2.145,336.944 2.000,334.813 2.000 C 332.579 2.000,332.000 1.876,332.000 1.400 C 332.000 0.917,331.378 0.800,328.800 0.800 C 326.933 0.800,325.600 0.633,325.600 0.400 C 325.600 0.134,283.667 0.000,200.600 0.000 C 117.533 0.000,75.600 0.134,75.600 0.400 M264.581 97.242 C 275.138 99.698,282.822 106.184,285.638 115.017 C 286.551 117.877,287.837 119.600,289.060 119.600 C 290.116 119.600,295.488 122.313,298.298 124.265 C 299.672 125.219,300.886 126.000,300.995 126.000 C 302.133 126.000,309.286 132.981,311.723 136.471 C 316.577 143.420,317.753 147.199,317.737 155.800 C 317.715 167.639,314.605 174.111,303.600 185.224 C 297.565 191.317,296.110 192.635,284.200 202.793 C 266.103 218.226,261.384 225.559,261.413 238.200 C 261.440 250.308,270.210 262.855,282.800 268.798 C 286.580 270.583,286.577 270.581,286.853 271.843 C 287.596 275.246,287.214 291.186,286.370 292.030 C 284.138 294.262,271.189 288.538,262.665 281.550 C 255.475 275.656,246.211 264.739,244.983 260.711 C 244.830 260.210,244.493 259.530,244.234 259.200 C 241.567 255.807,238.760 242.410,239.346 235.877 C 240.022 228.354,241.596 221.044,242.800 219.840 C 243.020 219.620,243.200 219.183,243.200 218.869 C 243.200 217.549,248.353 208.011,249.252 207.667 C 249.443 207.593,249.600 207.338,249.600 207.100 C 249.600 206.862,249.867 206.382,250.193 206.034 C 250.520 205.685,251.729 204.230,252.881 202.800 C 255.752 199.236,262.892 192.243,267.381 188.600 C 268.465 187.720,269.813 186.571,270.376 186.047 C 270.939 185.523,273.740 183.078,276.600 180.613 C 286.874 171.759,294.800 163.507,294.800 161.665 C 294.800 161.287,295.105 160.543,295.477 160.011 C 298.799 155.269,294.012 146.829,285.200 141.892 C 281.955 140.074,282.006 140.063,278.332 143.332 C 267.110 153.319,251.316 153.028,241.069 142.644 C 238.691 140.234,237.360 138.468,236.186 136.166 L 234.571 133.000 228.108 133.098 C 224.553 133.153,220.420 133.381,218.922 133.606 C 217.425 133.831,213.950 134.284,211.200 134.614 C 208.450 134.943,205.703 135.381,205.096 135.587 C 204.489 135.793,202.869 136.075,201.496 136.214 C 200.123 136.354,198.370 136.662,197.600 136.900 C 196.830 137.137,195.120 137.552,193.800 137.822 C 192.480 138.091,190.860 138.497,190.200 138.724 C 189.540 138.951,186.930 139.800,184.400 140.611 C 177.376 142.863,172.761 144.664,166.800 147.478 C 161.132 150.154,156.676 152.434,156.000 153.003 C 155.670 153.281,154.500 153.961,153.400 154.514 C 151.012 155.714,138.689 163.923,138.000 164.773 C 137.890 164.908,136.540 165.997,135.000 167.193 C 129.726 171.287,120.990 180.023,117.324 184.869 C 116.105 186.481,114.993 187.890,114.854 188.000 C 114.422 188.340,112.800 190.751,112.800 191.052 C 112.800 191.209,112.548 191.621,112.240 191.969 C 105.637 199.418,100.730 226.794,106.846 222.062 C 108.461 220.813,111.981 218.400,112.189 218.400 C 112.297 218.400,113.560 217.681,114.995 216.803 C 117.225 215.438,120.716 213.691,125.800 211.394 C 126.460 211.096,127.990 210.402,129.200 209.852 C 130.410 209.302,131.928 208.722,132.573 208.564 C 133.219 208.406,134.209 208.035,134.773 207.741 C 135.338 207.446,136.259 207.204,136.820 207.202 C 137.381 207.201,138.030 207.010,138.263 206.777 C 138.495 206.545,139.656 206.103,140.843 205.795 C 154.745 202.188,156.711 201.778,163.000 201.172 C 165.200 200.960,167.810 200.592,168.800 200.355 C 171.602 199.683,183.684 199.447,187.800 199.983 C 189.780 200.241,193.290 200.667,195.600 200.930 C 197.910 201.192,200.022 201.550,200.294 201.724 C 200.566 201.898,201.826 202.209,203.094 202.415 C 205.253 202.766,208.215 203.735,211.000 205.002 C 211.660 205.303,213.280 206.041,214.600 206.642 C 221.415 209.750,229.372 217.790,230.260 222.467 C 230.399 223.200,230.699 224.037,230.927 224.327 C 232.712 226.593,231.258 237.287,228.531 241.950 C 226.336 245.704,222.115 249.931,217.400 253.100 C 215.217 254.567,213.370 255.507,206.800 258.495 C 204.459 259.560,200.311 260.932,198.000 261.405 C 197.230 261.563,196.402 261.851,196.160 262.046 C 195.917 262.240,194.837 262.505,193.760 262.634 C 192.682 262.763,191.167 263.106,190.393 263.394 C 189.619 263.683,187.909 264.040,186.593 264.187 C 185.277 264.334,182.940 264.711,181.400 265.024 C 168.310 267.685,144.670 267.091,130.400 263.743 C 119.291 261.136,116.557 260.210,109.703 256.731 C 105.166 254.428,105.308 254.443,104.580 256.187 C 102.071 262.191,107.988 270.174,117.800 274.022 C 119.120 274.540,120.428 275.132,120.707 275.337 C 120.986 275.542,121.886 275.853,122.707 276.028 C 123.528 276.203,125.010 276.612,126.000 276.937 C 130.008 278.251,133.517 279.158,135.600 279.419 C 136.810 279.571,138.430 279.929,139.200 280.215 C 139.970 280.501,142.626 280.850,145.102 280.989 C 147.579 281.129,150.189 281.459,150.902 281.722 C 153.139 282.546,185.211 282.356,190.000 281.490 C 192.090 281.112,195.083 280.802,196.651 280.802 C 198.277 280.801,200.119 280.542,200.938 280.200 C 201.728 279.870,203.030 279.600,203.832 279.600 C 205.258 279.600,211.828 278.114,215.800 276.894 C 216.900 276.556,218.520 276.140,219.400 275.970 C 222.584 275.355,228.314 272.950,233.200 270.179 C 235.313 268.981,235.319 268.986,240.600 276.364 C 242.360 278.823,244.565 281.761,245.500 282.894 C 247.121 284.857,247.538 286.093,246.894 287.024 C 246.310 287.868,237.465 292.797,236.532 292.799 C 236.275 292.800,235.555 293.061,234.932 293.381 C 233.916 293.902,232.586 294.403,228.000 295.989 C 222.786 297.792,216.228 299.415,211.186 300.149 C 209.308 300.423,207.547 300.786,207.272 300.956 C 206.996 301.126,205.203 301.427,203.286 301.625 C 201.369 301.823,197.910 302.254,195.600 302.584 C 183.613 304.294,155.870 304.182,145.200 302.381 C 142.670 301.954,139.841 301.603,138.914 301.602 C 137.987 301.601,136.457 301.348,135.514 301.040 C 134.571 300.732,132.900 300.367,131.800 300.228 C 128.325 299.791,120.030 297.676,116.800 296.405 C 115.810 296.015,113.920 295.292,112.600 294.798 C 91.369 286.857,80.505 271.637,83.405 253.900 C 83.738 251.865,84.251 249.660,84.545 249.000 C 86.615 244.360,87.795 242.000,88.045 242.000 C 88.647 242.000,88.849 239.613,88.329 238.647 C 85.172 232.784,84.276 230.549,82.783 224.800 C 81.153 218.527,83.252 202.338,86.672 194.800 C 87.022 194.030,87.526 192.860,87.794 192.200 C 88.813 189.683,92.605 182.400,92.895 182.400 C 93.063 182.400,93.200 182.166,93.200 181.881 C 93.200 181.054,101.178 170.098,104.172 166.814 C 109.743 160.702,111.306 159.131,116.800 154.127 C 120.330 150.911,126.232 146.189,129.206 144.201 C 130.193 143.542,131.090 142.903,131.200 142.782 C 131.647 142.288,138.187 138.057,139.800 137.218 C 140.240 136.989,141.721 136.095,143.091 135.231 C 144.461 134.366,145.946 133.544,146.391 133.403 C 146.836 133.262,147.200 132.998,147.200 132.816 C 147.200 132.635,147.672 132.368,148.248 132.224 C 148.825 132.079,149.558 131.699,149.877 131.380 C 150.196 131.061,150.794 130.800,151.205 130.800 C 151.616 130.800,152.057 130.631,152.185 130.424 C 152.391 130.091,155.860 128.360,160.000 126.523 C 160.770 126.182,161.910 125.654,162.532 125.351 C 163.155 125.048,163.838 124.800,164.049 124.800 C 164.260 124.800,165.564 124.271,166.945 123.625 C 168.327 122.980,169.941 122.330,170.533 122.181 C 171.124 122.033,171.706 121.751,171.827 121.556 C 171.948 121.360,172.537 121.200,173.135 121.200 C 173.733 121.200,174.599 120.936,175.060 120.613 C 175.521 120.290,176.686 119.905,177.649 119.758 C 178.612 119.611,179.580 119.352,179.800 119.182 C 180.020 119.012,181.190 118.601,182.400 118.268 C 183.610 117.935,185.680 117.366,187.000 117.004 C 188.320 116.641,190.660 115.996,192.200 115.571 C 193.740 115.145,195.733 114.798,196.629 114.799 C 197.525 114.799,199.055 114.545,200.029 114.234 C 201.003 113.922,203.252 113.570,205.026 113.452 C 206.800 113.333,208.758 113.044,209.376 112.809 C 209.994 112.574,213.312 112.199,216.750 111.975 C 220.187 111.752,224.080 111.411,225.400 111.218 C 226.720 111.025,229.655 110.852,231.923 110.834 C 236.101 110.800,238.400 109.723,238.400 107.799 C 238.400 106.388,246.892 99.600,248.658 99.600 C 249.139 99.600,249.597 99.408,249.676 99.172 C 250.263 97.410,259.925 96.159,264.581 97.242 M255.029 115.861 C 248.974 117.719,247.036 125.259,251.424 129.889 C 253.868 132.468,259.089 133.275,261.938 131.515 C 271.055 125.880,265.248 112.724,255.029 115.861 M167.000 222.848 C 165.900 223.043,163.290 223.464,161.200 223.784 C 154.581 224.798,152.235 225.262,150.940 225.813 C 150.247 226.107,148.987 226.474,148.140 226.627 C 146.537 226.917,141.392 228.571,137.600 230.017 C 136.390 230.478,134.770 231.094,134.000 231.386 C 132.719 231.872,130.045 233.233,123.314 236.823 C 119.630 238.789,119.567 239.592,123.023 240.557 C 124.110 240.861,125.585 241.310,126.300 241.555 C 127.015 241.800,128.185 242.200,128.900 242.444 C 129.615 242.688,131.640 243.120,133.400 243.405 C 135.160 243.691,137.107 244.121,137.726 244.362 C 138.345 244.603,139.785 244.806,140.926 244.813 C 142.067 244.820,144.890 245.084,147.200 245.400 C 149.510 245.716,154.190 245.975,157.600 245.975 C 161.010 245.975,165.690 245.716,168.000 245.400 C 170.310 245.084,173.292 244.820,174.627 244.813 C 175.962 244.806,177.942 244.543,179.027 244.228 C 180.112 243.914,182.061 243.530,183.357 243.375 C 184.653 243.220,186.183 242.849,186.757 242.549 C 187.331 242.250,188.201 242.004,188.692 242.002 C 189.559 242.000,193.242 240.694,196.711 239.158 C 197.652 238.741,198.665 238.400,198.962 238.400 C 199.259 238.400,199.726 238.130,200.000 237.800 C 200.274 237.470,200.791 237.194,201.149 237.186 C 202.058 237.168,206.749 233.349,207.271 232.203 C 210.133 225.922,183.976 219.845,167.000 222.848 " stroke="none" fill="#63a73e" fill-rule="evenodd"></path><path id="path2" d="M256.200 98.045 C 255.320 98.245,253.811 98.592,252.846 98.817 C 247.721 100.012,241.098 104.780,238.203 109.361 C 236.841 111.516,237.427 111.378,227.000 112.006 C 204.930 113.335,188.571 116.453,172.400 122.412 C 163.584 125.661,164.336 125.352,157.800 128.424 C 147.379 133.322,143.709 135.381,134.400 141.554 C 125.931 147.170,120.902 151.232,112.622 159.145 C 108.985 162.621,102.269 169.941,100.666 172.177 C 95.798 178.966,93.906 181.841,92.225 185.000 C 91.172 186.980,89.996 189.140,89.612 189.800 C 88.977 190.891,87.926 193.473,86.601 197.200 C 81.310 212.084,81.840 225.654,88.154 236.944 C 89.650 239.619,89.684 241.067,88.293 242.755 C 88.000 243.110,87.345 244.390,86.836 245.600 C 86.327 246.810,85.661 248.392,85.355 249.115 C 83.208 254.192,83.230 264.745,85.398 269.800 C 90.042 280.629,97.771 288.034,109.600 292.988 C 110.590 293.402,112.155 294.070,113.078 294.471 C 114.001 294.872,115.030 295.200,115.364 295.200 C 115.699 295.200,116.564 295.460,117.286 295.777 C 120.633 297.248,126.473 298.767,132.800 299.813 C 134.670 300.122,137.010 300.556,138.000 300.778 C 138.990 301.001,141.780 301.377,144.200 301.614 C 146.620 301.852,149.680 302.213,151.000 302.417 C 152.320 302.621,159.520 302.898,167.000 303.033 C 190.110 303.449,212.496 300.696,227.000 295.654 C 227.660 295.424,229.370 294.840,230.800 294.357 C 237.808 291.985,246.400 287.415,246.400 286.058 C 246.400 285.656,244.463 282.733,242.095 279.563 C 239.728 276.393,237.343 273.128,236.795 272.306 C 235.359 270.151,235.131 270.159,230.241 272.552 C 221.526 276.816,208.798 280.120,195.400 281.598 C 193.200 281.840,189.960 282.230,188.200 282.464 C 177.585 283.875,147.690 282.783,137.600 280.616 C 136.170 280.309,134.280 279.939,133.400 279.795 C 130.694 279.351,121.350 276.506,119.673 275.616 C 119.303 275.419,117.784 274.714,116.298 274.049 C 105.813 269.357,99.915 259.508,104.716 254.707 L 105.517 253.905 107.459 254.928 C 125.193 264.277,153.485 268.378,176.869 264.991 C 179.141 264.662,182.260 264.224,183.800 264.018 C 185.340 263.812,187.673 263.364,188.984 263.022 C 190.295 262.680,191.688 262.400,192.078 262.400 C 193.872 262.400,208.055 257.677,208.980 256.772 C 209.189 256.567,209.621 256.400,209.941 256.400 C 211.880 256.400,222.019 249.322,224.747 246.063 C 237.052 231.366,230.882 213.750,210.600 205.671 C 196.433 200.028,174.800 198.979,155.800 203.014 C 153.160 203.575,149.770 204.295,148.266 204.614 C 146.762 204.934,145.338 205.315,145.102 205.460 C 144.866 205.606,143.667 205.955,142.437 206.236 C 135.767 207.756,123.689 212.715,116.000 217.088 C 115.010 217.652,113.840 218.317,113.400 218.566 C 111.684 219.541,108.933 221.368,107.542 222.458 C 105.005 224.446,103.898 223.518,103.392 218.975 C 103.022 215.661,104.523 205.675,105.612 204.200 C 105.775 203.980,106.031 203.225,106.181 202.522 C 106.866 199.315,112.125 190.352,116.696 184.600 C 124.151 175.218,139.619 161.601,148.368 156.717 C 149.156 156.277,151.240 155.052,153.000 153.994 C 162.052 148.553,177.505 141.699,186.400 139.180 C 187.170 138.962,188.700 138.528,189.800 138.215 C 195.220 136.676,204.413 134.817,209.600 134.211 C 210.810 134.070,213.150 133.707,214.800 133.405 C 224.948 131.549,235.998 131.839,236.001 133.962 C 236.004 135.833,240.713 142.043,244.027 144.548 C 254.882 152.751,268.197 151.802,278.908 142.062 C 282.038 139.216,281.554 139.377,283.849 140.422 C 291.751 144.022,296.800 150.139,296.800 156.113 C 296.800 163.001,291.309 169.298,268.400 188.682 C 249.292 204.850,241.207 218.177,240.178 235.200 C 239.484 246.699,242.174 255.825,249.531 266.922 C 256.055 276.765,269.586 287.149,280.970 291.051 C 286.613 292.985,286.400 293.356,286.400 281.600 C 286.400 270.807,286.579 271.472,283.247 269.899 C 260.738 259.270,254.023 235.553,268.300 217.105 C 269.545 215.495,277.331 207.812,279.778 205.777 C 281.086 204.690,283.083 202.990,284.217 202.000 C 285.350 201.010,288.045 198.670,290.205 196.800 C 311.475 178.387,317.200 169.639,317.200 155.550 C 317.200 142.358,310.056 131.881,295.253 123.364 C 292.136 121.571,289.864 120.400,289.501 120.400 C 287.580 120.400,284.400 116.375,284.400 113.943 C 284.400 111.627,277.764 103.917,273.633 101.435 C 268.754 98.502,260.911 96.977,256.200 98.045 M268.000 99.700 C 275.697 102.198,281.812 108.249,284.234 115.762 C 285.272 118.982,285.569 119.245,291.646 122.314 C 307.762 130.451,316.153 141.278,316.701 154.641 C 316.885 159.151,315.753 165.421,314.217 168.388 C 313.929 168.945,313.211 170.390,312.622 171.600 C 309.881 177.224,304.080 183.745,293.588 192.998 C 290.844 195.417,288.420 197.598,288.200 197.845 C 287.980 198.091,286.814 199.056,285.610 199.989 C 271.428 210.976,262.705 221.869,260.649 231.162 C 258.854 239.280,259.468 243.740,263.516 251.971 C 266.621 258.284,279.247 270.400,282.722 270.400 C 283.027 270.400,283.799 270.772,284.438 271.227 L 285.600 272.054 285.600 281.680 L 285.600 291.305 284.100 291.063 C 274.265 289.475,257.670 277.904,251.000 267.985 C 250.340 267.003,249.575 265.962,249.300 265.671 C 249.025 265.381,248.800 264.964,248.800 264.745 C 248.800 264.526,248.379 263.774,247.864 263.073 C 245.886 260.381,243.737 255.575,242.557 251.200 C 242.231 249.990,241.767 248.280,241.526 247.400 C 240.658 244.228,240.937 231.068,241.963 226.800 C 243.443 220.642,245.450 215.908,248.699 210.910 C 249.524 209.639,250.294 208.371,250.408 208.091 C 251.307 205.896,261.048 195.992,269.400 188.782 C 287.071 173.528,292.797 167.892,295.569 163.024 C 300.459 154.435,296.477 146.348,284.124 139.780 C 281.637 138.458,281.748 138.422,278.409 141.618 C 271.977 147.776,260.241 151.551,255.280 149.057 C 254.686 148.759,253.570 148.395,252.800 148.248 C 246.864 147.121,236.400 137.710,236.400 133.500 C 236.400 131.877,234.618 131.132,231.142 131.303 C 225.403 131.584,216.738 132.426,213.400 133.026 C 211.640 133.342,209.593 133.600,208.851 133.600 C 206.924 133.600,195.207 135.992,193.920 136.649 C 193.326 136.952,192.189 137.200,191.394 137.200 C 190.598 137.200,189.554 137.421,189.074 137.690 C 188.593 137.960,187.300 138.387,186.200 138.640 C 185.100 138.893,183.570 139.333,182.800 139.618 C 182.030 139.902,180.050 140.631,178.400 141.237 C 176.750 141.842,174.860 142.621,174.200 142.967 C 173.540 143.312,172.730 143.602,172.400 143.610 C 172.070 143.619,171.451 143.890,171.024 144.213 C 170.596 144.536,169.966 144.802,169.624 144.803 C 168.738 144.808,154.049 152.355,151.082 154.329 C 150.198 154.918,148.731 155.850,147.823 156.400 C 138.720 161.914,124.265 174.212,118.400 181.431 C 112.318 188.918,106.000 199.171,106.000 201.555 C 106.000 201.922,105.766 202.577,105.480 203.011 C 103.169 206.516,101.784 219.675,103.397 222.795 C 104.277 224.497,106.423 224.717,107.600 223.227 C 107.710 223.088,108.761 222.365,109.937 221.622 C 111.112 220.878,112.282 220.074,112.537 219.835 C 112.791 219.596,114.710 218.522,116.800 217.449 C 118.890 216.375,120.884 215.250,121.231 214.949 C 121.579 214.647,122.083 214.400,122.352 214.400 C 122.621 214.400,123.507 214.062,124.321 213.648 C 127.673 211.945,128.359 211.674,136.200 208.968 C 138.400 208.209,140.560 207.427,141.000 207.231 C 142.087 206.747,146.536 205.638,149.077 205.218 C 150.220 205.030,151.328 204.768,151.540 204.637 C 151.960 204.378,159.282 203.058,165.000 202.212 C 172.913 201.041,191.790 201.178,196.200 202.438 C 197.080 202.689,199.330 203.225,201.200 203.628 C 205.157 204.482,208.663 205.434,209.800 205.963 C 216.970 209.300,217.276 209.475,220.873 212.296 C 233.723 222.368,233.319 239.113,219.972 249.687 C 217.611 251.558,210.260 256.000,209.526 256.000 C 209.215 256.000,208.789 256.167,208.580 256.372 C 207.686 257.247,194.147 261.503,189.500 262.371 C 181.353 263.891,178.082 264.346,171.600 264.862 C 164.102 265.459,144.858 265.098,140.200 264.273 C 138.220 263.922,135.520 263.456,134.200 263.236 C 128.310 262.258,123.477 261.052,120.400 259.794 C 119.190 259.299,117.698 258.777,117.084 258.635 C 115.971 258.377,110.339 255.917,109.200 255.191 C 105.689 252.953,104.726 253.037,103.348 255.701 C 100.315 261.565,105.973 270.138,115.800 274.571 C 117.120 275.167,118.678 275.912,119.262 276.227 C 119.846 276.542,120.583 276.800,120.900 276.800 C 121.218 276.800,122.064 277.093,122.782 277.451 C 124.376 278.246,128.830 279.493,132.600 280.199 C 134.140 280.487,136.029 280.920,136.797 281.161 C 137.566 281.403,139.039 281.600,140.071 281.600 C 141.103 281.600,142.455 281.796,143.074 282.037 C 148.385 284.096,184.735 284.339,194.200 282.379 C 195.300 282.151,197.996 281.793,200.192 281.583 C 202.388 281.373,204.728 281.023,205.392 280.806 C 206.056 280.588,207.680 280.246,209.000 280.045 C 211.643 279.644,219.561 277.678,220.198 277.266 C 220.419 277.122,221.320 276.797,222.200 276.541 C 225.099 275.701,227.351 274.784,231.153 272.899 L 234.906 271.038 235.858 272.219 C 236.382 272.869,237.303 274.119,237.905 274.998 C 238.507 275.877,239.810 277.650,240.800 278.937 C 241.790 280.225,242.859 281.666,243.176 282.139 C 243.492 282.613,244.064 283.360,244.446 283.800 C 245.714 285.260,245.801 286.653,244.662 287.262 C 240.752 289.354,232.738 293.200,231.796 293.437 C 231.168 293.594,230.191 293.965,229.627 294.259 C 229.062 294.554,228.201 294.796,227.714 294.798 C 227.226 294.799,226.236 295.049,225.514 295.354 C 223.570 296.174,218.200 297.624,214.953 298.205 C 213.388 298.486,211.734 298.914,211.280 299.157 C 210.825 299.401,209.579 299.600,208.510 299.600 C 207.442 299.600,205.575 299.859,204.361 300.175 C 203.147 300.491,199.465 300.950,196.177 301.194 C 192.890 301.439,189.222 301.810,188.027 302.020 C 184.456 302.645,157.843 302.492,151.813 301.812 C 148.946 301.489,144.890 301.040,142.800 300.816 C 136.201 300.106,123.484 297.543,122.620 296.749 C 122.411 296.557,121.961 296.403,121.620 296.406 C 117.190 296.447,101.217 288.714,96.488 284.239 C 95.547 283.348,94.536 282.484,94.242 282.319 C 92.291 281.228,87.464 273.763,86.016 269.600 C 83.339 261.903,84.260 251.648,88.315 244.000 C 90.144 240.550,90.447 239.447,89.815 238.535 C 85.749 232.668,83.299 222.978,83.764 214.600 C 84.050 209.443,86.194 198.641,87.175 197.416 C 87.358 197.187,87.634 196.409,87.789 195.687 C 88.037 194.527,90.174 190.121,93.318 184.289 C 95.342 180.536,101.041 172.468,103.978 169.200 C 104.670 168.430,106.438 166.450,107.908 164.800 C 110.069 162.374,114.874 157.841,122.349 151.175 C 126.926 147.094,139.707 138.576,147.733 134.257 C 149.310 133.409,150.884 132.464,151.231 132.157 C 151.579 131.851,152.091 131.600,152.370 131.600 C 152.649 131.600,153.354 131.336,153.938 131.012 C 154.522 130.689,156.800 129.604,159.000 128.600 C 161.200 127.597,163.540 126.517,164.200 126.201 C 165.591 125.535,166.926 125.048,174.713 122.367 C 177.856 121.285,180.646 120.399,180.913 120.398 C 181.181 120.396,181.869 120.151,182.441 119.852 C 183.014 119.553,184.364 119.177,185.441 119.017 C 186.519 118.856,187.580 118.577,187.800 118.397 C 188.020 118.217,189.640 117.796,191.400 117.462 C 193.160 117.129,195.500 116.669,196.600 116.442 C 201.405 115.447,207.629 114.427,210.400 114.180 C 212.050 114.033,214.840 113.663,216.600 113.357 C 218.360 113.051,221.780 112.782,224.200 112.758 C 233.703 112.665,236.788 112.308,237.646 111.200 C 242.807 104.535,245.998 101.911,251.400 99.893 C 255.764 98.263,263.304 98.175,268.000 99.700 M254.860 114.399 C 247.217 117.148,245.367 125.936,251.274 131.435 C 254.986 134.891,260.789 134.723,264.735 131.045 C 272.291 124.000,264.531 110.920,254.860 114.399 M261.400 115.353 C 264.978 117.045,267.200 120.262,267.200 123.752 C 267.200 133.906,253.215 136.844,249.209 127.532 C 245.926 119.900,253.985 111.848,261.400 115.353 M170.600 221.190 C 165.601 221.508,157.502 222.801,154.400 223.777 C 153.410 224.089,151.880 224.460,151.000 224.603 C 149.349 224.870,148.327 225.165,142.200 227.143 C 137.038 228.809,134.423 229.817,133.898 230.342 C 133.646 230.594,133.128 230.800,132.746 230.800 C 132.364 230.800,129.745 231.991,126.926 233.446 C 117.296 238.416,116.564 239.823,122.600 241.748 C 124.580 242.380,126.791 243.145,127.514 243.448 C 128.236 243.752,129.239 244.000,129.742 244.000 C 130.246 244.000,131.455 244.268,132.429 244.595 C 137.273 246.223,152.946 247.726,161.400 247.374 C 166.370 247.167,169.412 246.862,179.200 245.591 C 180.630 245.405,182.588 244.971,183.550 244.627 C 184.513 244.282,185.814 244.000,186.442 244.000 C 187.070 244.000,188.262 243.747,189.092 243.439 C 189.921 243.130,191.590 242.575,192.800 242.206 C 201.136 239.665,209.200 234.151,209.200 230.994 C 209.200 229.258,205.097 225.750,201.902 224.754 C 201.186 224.531,200.263 224.165,199.851 223.940 C 195.821 221.744,182.128 220.457,170.600 221.190 M194.000 222.951 C 210.872 227.049,212.680 232.663,199.142 238.916 C 194.411 241.101,187.255 243.600,185.730 243.600 C 185.311 243.600,183.963 243.862,182.735 244.182 C 181.506 244.502,178.203 245.047,175.394 245.393 C 172.585 245.739,170.178 246.087,170.044 246.166 C 168.588 247.024,148.147 246.636,142.000 245.634 C 133.561 244.258,129.239 243.407,128.000 242.879 C 127.450 242.644,125.430 241.981,123.511 241.405 C 121.592 240.830,119.915 240.186,119.785 239.976 C 118.106 237.260,139.373 227.378,152.400 224.821 C 153.390 224.627,156.074 224.088,158.365 223.624 C 170.088 221.249,185.772 220.953,194.000 222.951 " stroke="none" fill="#b4cca4" fill-rule="evenodd"></path><path id="path3" d="M258.900 97.487 C 259.505 97.578,260.495 97.578,261.100 97.487 C 261.705 97.395,261.210 97.320,260.000 97.320 C 258.790 97.320,258.295 97.395,258.900 97.487 M276.200 103.166 C 276.978 104.061,279.200 105.798,279.200 105.512 C 279.200 105.434,278.345 104.667,277.300 103.808 C 276.255 102.949,275.760 102.660,276.200 103.166 M240.987 105.700 L 238.600 108.200 241.100 105.813 C 242.475 104.499,243.600 103.374,243.600 103.313 C 243.600 103.017,243.205 103.378,240.987 105.700 M231.700 111.491 C 232.525 111.578,233.875 111.578,234.700 111.491 C 235.525 111.405,234.850 111.334,233.200 111.334 C 231.550 111.334,230.875 111.405,231.700 111.491 M226.100 111.887 C 226.705 111.978,227.695 111.978,228.300 111.887 C 228.905 111.795,228.410 111.720,227.200 111.720 C 225.990 111.720,225.495 111.795,226.100 111.887 M221.900 112.282 C 222.395 112.378,223.205 112.378,223.700 112.282 C 224.195 112.187,223.790 112.109,222.800 112.109 C 221.810 112.109,221.405 112.187,221.900 112.282 M215.100 112.682 C 215.595 112.778,216.405 112.778,216.900 112.682 C 217.395 112.587,216.990 112.509,216.000 112.509 C 215.010 112.509,214.605 112.587,215.100 112.682 M292.800 121.755 C 292.800 122.031,295.621 123.712,295.794 123.539 C 295.878 123.455,295.238 122.980,294.373 122.482 C 293.508 121.984,292.800 121.657,292.800 121.755 M300.924 126.677 C 301.260 127.221,304.400 129.755,304.400 129.482 C 304.400 129.380,303.553 128.603,302.519 127.755 C 301.484 126.907,300.766 126.422,300.924 126.677 M251.728 130.900 C 252.594 131.725,253.500 132.400,253.740 132.400 C 253.981 132.400,253.733 132.102,253.189 131.739 C 252.645 131.375,251.739 130.700,251.176 130.239 C 250.613 129.777,250.862 130.075,251.728 130.900 M232.000 132.287 C 234.042 132.391,234.750 132.599,235.300 133.254 C 235.685 133.713,236.000 133.917,236.000 133.706 C 236.000 132.616,234.480 132.002,231.969 132.077 L 229.400 132.154 232.000 132.287 M223.905 132.683 C 224.402 132.779,225.122 132.775,225.505 132.675 C 225.887 132.575,225.480 132.496,224.600 132.501 C 223.720 132.505,223.407 132.587,223.905 132.683 M217.505 133.083 C 218.002 133.179,218.722 133.175,219.105 133.075 C 219.487 132.975,219.080 132.896,218.200 132.901 C 217.320 132.905,217.007 132.987,217.505 133.083 M292.400 146.600 C 293.146 147.370,293.847 148.000,293.957 148.000 C 294.067 148.000,293.546 147.370,292.800 146.600 C 292.054 145.830,291.353 145.200,291.243 145.200 C 291.133 145.200,291.654 145.830,292.400 146.600 M317.351 155.600 C 317.351 158.130,317.416 159.165,317.496 157.900 C 317.575 156.635,317.575 154.565,317.496 153.300 C 317.416 152.035,317.351 153.070,317.351 155.600 M117.785 154.100 L 115.800 156.200 117.900 154.215 C 119.851 152.371,120.183 152.000,119.885 152.000 C 119.822 152.000,118.877 152.945,117.785 154.100 M111.375 160.100 L 110.200 161.400 111.500 160.225 C 112.215 159.579,112.800 158.994,112.800 158.925 C 112.800 158.616,112.470 158.888,111.375 160.100 M316.846 162.067 C 316.821 162.434,316.696 163.064,316.570 163.467 C 316.352 164.162,316.363 164.163,316.797 163.487 C 317.048 163.096,317.173 162.466,317.073 162.087 C 316.911 161.468,316.888 161.466,316.846 162.067 M107.600 163.800 C 106.628 164.790,105.923 165.600,106.033 165.600 C 106.143 165.600,107.028 164.790,108.000 163.800 C 108.972 162.810,109.677 162.000,109.567 162.000 C 109.457 162.000,108.572 162.810,107.600 163.800 M130.378 170.300 L 129.000 171.800 130.500 170.422 C 131.896 169.138,132.184 168.800,131.878 168.800 C 131.812 168.800,131.137 169.475,130.378 170.300 M124.991 175.300 L 121.800 178.600 125.100 175.409 C 126.915 173.655,128.400 172.170,128.400 172.109 C 128.400 171.818,127.954 172.235,124.991 175.300 M279.375 178.900 L 278.200 180.200 279.500 179.025 C 280.215 178.379,280.800 177.794,280.800 177.725 C 280.800 177.416,280.470 177.688,279.375 178.900 M272.575 184.900 L 271.400 186.200 272.700 185.025 C 273.415 184.379,274.000 183.794,274.000 183.725 C 274.000 183.416,273.670 183.688,272.575 184.900 M90.955 186.612 C 90.590 187.169,90.364 187.698,90.453 187.787 C 90.542 187.876,90.918 187.420,91.289 186.774 C 92.114 185.336,91.869 185.217,90.955 186.612 M297.578 190.300 L 296.200 191.800 297.700 190.422 C 299.096 189.138,299.384 188.800,299.078 188.800 C 299.012 188.800,298.337 189.475,297.578 190.300 M263.385 192.900 L 261.400 195.000 263.500 193.015 C 265.451 191.171,265.783 190.800,265.485 190.800 C 265.422 190.800,264.477 191.745,263.385 192.900 M290.575 196.500 L 289.400 197.800 290.700 196.625 C 291.415 195.979,292.000 195.394,292.000 195.325 C 292.000 195.016,291.670 195.288,290.575 196.500 M86.465 196.617 C 85.795 198.088,85.923 198.402,86.647 197.065 C 86.986 196.440,87.188 195.854,87.096 195.763 C 87.005 195.671,86.721 196.056,86.465 196.617 M257.785 198.100 L 255.800 200.200 257.900 198.215 C 259.851 196.371,260.183 196.000,259.885 196.000 C 259.822 196.000,258.877 196.945,257.785 198.100 M173.300 200.676 C 173.685 200.776,174.315 200.776,174.700 200.676 C 175.085 200.575,174.770 200.493,174.000 200.493 C 173.230 200.493,172.915 200.575,173.300 200.676 M185.705 200.687 C 186.314 200.779,187.214 200.777,187.705 200.682 C 188.197 200.587,187.700 200.511,186.600 200.514 C 185.500 200.517,185.097 200.595,185.705 200.687 M163.705 201.487 C 164.314 201.579,165.214 201.577,165.705 201.482 C 166.197 201.387,165.700 201.311,164.600 201.314 C 163.500 201.317,163.097 201.395,163.705 201.487 M199.400 202.400 C 199.840 202.589,200.470 202.744,200.800 202.744 C 201.178 202.744,201.104 202.617,200.600 202.400 C 200.160 202.211,199.530 202.056,199.200 202.056 C 198.822 202.056,198.896 202.183,199.400 202.400 M138.800 207.000 C 138.250 207.314,137.980 207.572,138.200 207.572 C 138.420 207.572,139.050 207.314,139.600 207.000 C 140.150 206.686,140.420 206.428,140.200 206.428 C 139.980 206.428,139.350 206.686,138.800 207.000 M273.791 211.300 L 270.600 214.600 273.900 211.409 C 276.965 208.446,277.382 208.000,277.091 208.000 C 277.030 208.000,275.545 209.485,273.791 211.300 M82.893 212.000 C 82.893 212.770,82.975 213.085,83.076 212.700 C 83.176 212.315,83.176 211.685,83.076 211.300 C 82.975 210.915,82.893 211.230,82.893 212.000 M103.324 217.000 C 103.326 218.320,103.401 218.812,103.490 218.093 C 103.579 217.374,103.577 216.294,103.486 215.693 C 103.395 215.092,103.322 215.680,103.324 217.000 M116.600 216.427 C 115.940 216.850,115.605 217.197,115.856 217.198 C 116.106 217.199,116.736 216.846,117.256 216.413 C 118.445 215.423,118.159 215.429,116.600 216.427 M82.901 221.800 C 82.905 222.680,82.987 222.993,83.083 222.495 C 83.179 221.998,83.175 221.278,83.075 220.895 C 82.975 220.513,82.896 220.920,82.901 221.800 M170.900 221.876 C 171.285 221.976,171.915 221.976,172.300 221.876 C 172.685 221.775,172.370 221.693,171.600 221.693 C 170.830 221.693,170.515 221.775,170.900 221.876 M185.105 221.883 C 185.602 221.979,186.322 221.975,186.705 221.875 C 187.087 221.775,186.680 221.696,185.800 221.701 C 184.920 221.705,184.607 221.787,185.105 221.883 M239.734 238.000 C 239.734 239.650,239.805 240.325,239.891 239.500 C 239.978 238.675,239.978 237.325,239.891 236.500 C 239.805 235.675,239.734 236.350,239.734 238.000 M260.528 238.800 C 260.528 240.230,260.601 240.815,260.689 240.100 C 260.778 239.385,260.778 238.215,260.689 237.500 C 260.601 236.785,260.528 237.370,260.528 238.800 M240.093 242.800 C 240.093 243.570,240.175 243.885,240.276 243.500 C 240.376 243.115,240.376 242.485,240.276 242.100 C 240.175 241.715,240.093 242.030,240.093 242.800 M128.400 243.000 C 128.950 243.314,129.580 243.572,129.800 243.572 C 130.020 243.572,129.750 243.314,129.200 243.000 C 128.650 242.686,128.020 242.428,127.800 242.428 C 127.580 242.428,127.850 242.686,128.400 243.000 M180.600 244.400 C 180.096 244.617,180.022 244.744,180.400 244.744 C 180.730 244.744,181.360 244.589,181.800 244.400 C 182.304 244.183,182.378 244.056,182.000 244.056 C 181.670 244.056,181.040 244.211,180.600 244.400 M173.105 245.483 C 173.602 245.579,174.322 245.575,174.705 245.475 C 175.087 245.375,174.680 245.296,173.800 245.301 C 172.920 245.305,172.607 245.387,173.105 245.483 M143.700 245.876 C 144.085 245.976,144.715 245.976,145.100 245.876 C 145.485 245.775,145.170 245.693,144.400 245.693 C 143.630 245.693,143.315 245.775,143.700 245.876 M147.105 246.283 C 147.602 246.379,148.322 246.375,148.705 246.275 C 149.087 246.175,148.680 246.096,147.800 246.101 C 146.920 246.105,146.607 246.187,147.105 246.283 M167.500 246.282 C 167.995 246.378,168.805 246.378,169.300 246.282 C 169.795 246.187,169.390 246.109,168.400 246.109 C 167.410 246.109,167.005 246.187,167.500 246.282 M155.312 246.695 C 156.364 246.777,157.984 246.776,158.912 246.692 C 159.840 246.608,158.980 246.541,157.000 246.542 C 155.020 246.543,154.260 246.612,155.312 246.695 M103.628 262.200 C 103.628 262.420,103.886 263.050,104.200 263.600 C 104.514 264.150,104.772 264.420,104.772 264.200 C 104.772 263.980,104.514 263.350,104.200 262.800 C 103.886 262.250,103.628 261.980,103.628 262.200 M142.900 265.476 C 143.285 265.576,143.915 265.576,144.300 265.476 C 144.685 265.375,144.370 265.293,143.600 265.293 C 142.830 265.293,142.515 265.375,142.900 265.476 M148.100 265.887 C 148.705 265.978,149.695 265.978,150.300 265.887 C 150.905 265.795,150.410 265.720,149.200 265.720 C 147.990 265.720,147.495 265.795,148.100 265.887 M167.305 265.887 C 167.914 265.979,168.814 265.977,169.305 265.882 C 169.797 265.787,169.300 265.711,168.200 265.714 C 167.100 265.717,166.697 265.795,167.305 265.887 M157.712 266.295 C 158.764 266.377,160.384 266.376,161.312 266.292 C 162.240 266.208,161.380 266.141,159.400 266.142 C 157.420 266.143,156.660 266.212,157.712 266.295 M232.696 270.950 C 230.406 272.358,230.337 272.691,232.600 271.413 C 234.902 270.113,235.066 269.995,234.567 270.012 C 234.365 270.019,233.523 270.441,232.696 270.950 M254.800 273.800 C 255.546 274.570,256.247 275.200,256.357 275.200 C 256.467 275.200,255.946 274.570,255.200 273.800 C 254.454 273.030,253.753 272.400,253.643 272.400 C 253.533 272.400,254.054 273.030,254.800 273.800 M258.400 277.400 C 259.146 278.170,259.847 278.800,259.957 278.800 C 260.067 278.800,259.546 278.170,258.800 277.400 C 258.054 276.630,257.353 276.000,257.243 276.000 C 257.133 276.000,257.654 276.630,258.400 277.400 M146.500 281.876 C 146.885 281.976,147.515 281.976,147.900 281.876 C 148.285 281.775,147.970 281.693,147.200 281.693 C 146.430 281.693,146.115 281.775,146.500 281.876 M188.705 282.283 C 189.202 282.379,189.922 282.375,190.305 282.275 C 190.687 282.175,190.280 282.096,189.400 282.101 C 188.520 282.105,188.207 282.187,188.705 282.283 M153.107 282.690 C 153.826 282.779,154.906 282.777,155.507 282.686 C 156.108 282.595,155.520 282.522,154.200 282.524 C 152.880 282.526,152.388 282.601,153.107 282.690 M183.507 282.690 C 184.226 282.779,185.306 282.777,185.907 282.686 C 186.508 282.595,185.920 282.522,184.600 282.524 C 183.280 282.526,182.788 282.601,183.507 282.690 M165.100 283.098 C 167.135 283.171,170.465 283.171,172.500 283.098 C 174.535 283.025,172.870 282.966,168.800 282.966 C 164.730 282.966,163.065 283.025,165.100 283.098 M145.105 301.883 C 145.602 301.979,146.322 301.975,146.705 301.875 C 147.087 301.775,146.680 301.696,145.800 301.701 C 144.920 301.705,144.607 301.787,145.105 301.883 M150.900 302.676 C 151.285 302.776,151.915 302.776,152.300 302.676 C 152.685 302.575,152.370 302.493,151.600 302.493 C 150.830 302.493,150.515 302.575,150.900 302.676 M189.105 302.683 C 189.602 302.779,190.322 302.775,190.705 302.675 C 191.087 302.575,190.680 302.496,189.800 302.501 C 188.920 302.505,188.607 302.587,189.105 302.683 M156.505 303.087 C 157.114 303.179,158.014 303.177,158.505 303.082 C 158.997 302.987,158.500 302.911,157.400 302.914 C 156.300 302.917,155.897 302.995,156.505 303.087 M184.105 303.087 C 184.714 303.179,185.614 303.177,186.105 303.082 C 186.597 302.987,186.100 302.911,185.000 302.914 C 183.900 302.917,183.497 302.995,184.105 303.087 M167.519 303.498 C 169.344 303.572,172.224 303.572,173.919 303.497 C 175.614 303.422,174.120 303.361,170.600 303.362 C 167.080 303.362,165.694 303.424,167.519 303.498 " stroke="none" fill="#a4c48c" fill-rule="evenodd"></path><path id="path4" d="M254.079 97.603 C 251.812 98.211,249.847 98.820,249.712 98.955 C 249.151 99.516,249.969 99.573,251.239 99.062 C 264.412 93.755,280.644 101.702,285.293 115.735 C 286.308 118.799,286.897 119.490,288.964 120.035 C 291.592 120.728,299.373 125.230,303.038 128.178 C 305.186 129.906,311.200 136.009,311.200 136.461 C 311.200 136.616,311.453 136.996,311.762 137.305 C 313.197 138.740,316.788 147.194,317.324 150.400 C 317.460 151.213,317.501 151.155,317.546 150.087 C 317.657 147.407,314.966 141.114,311.723 136.471 C 309.286 132.981,302.133 126.000,300.995 126.000 C 300.886 126.000,299.672 125.219,298.298 124.265 C 295.488 122.313,290.116 119.600,289.060 119.600 C 287.837 119.600,286.551 117.877,285.638 115.017 C 281.594 102.335,266.820 94.183,254.079 97.603 M245.591 101.029 C 243.218 102.577,238.400 107.114,238.400 107.799 C 238.400 109.723,236.101 110.800,231.923 110.834 C 229.655 110.852,226.720 111.025,225.400 111.218 C 224.080 111.411,220.187 111.752,216.750 111.975 C 213.312 112.199,209.994 112.574,209.376 112.809 C 208.758 113.044,206.800 113.333,205.026 113.452 C 203.252 113.570,201.003 113.922,200.029 114.234 C 199.055 114.545,197.525 114.799,196.629 114.799 C 195.733 114.798,193.740 115.145,192.200 115.571 C 190.660 115.996,188.320 116.641,187.000 117.004 C 185.680 117.366,183.610 117.935,182.400 118.268 C 181.190 118.601,180.020 119.012,179.800 119.182 C 179.580 119.352,178.612 119.611,177.649 119.758 C 176.686 119.905,175.521 120.290,175.060 120.613 C 174.599 120.936,173.733 121.200,173.135 121.200 C 172.537 121.200,171.948 121.360,171.827 121.556 C 171.706 121.751,171.124 122.033,170.533 122.181 C 169.941 122.330,168.327 122.980,166.945 123.625 C 165.564 124.271,164.260 124.800,164.049 124.800 C 163.838 124.800,163.155 125.048,162.532 125.351 C 161.910 125.654,160.770 126.182,160.000 126.523 C 155.860 128.360,152.391 130.091,152.185 130.424 C 152.057 130.631,151.616 130.800,151.205 130.800 C 150.794 130.800,150.196 131.061,149.877 131.380 C 149.558 131.699,148.825 132.079,148.248 132.224 C 147.672 132.368,147.200 132.635,147.200 132.816 C 147.200 132.998,146.836 133.262,146.391 133.403 C 145.946 133.544,144.461 134.366,143.091 135.231 C 141.721 136.095,140.240 136.989,139.800 137.218 C 138.187 138.057,131.647 142.288,131.200 142.782 C 131.090 142.903,130.193 143.542,129.206 144.201 C 126.232 146.189,120.330 150.911,116.800 154.127 C 111.306 159.131,109.743 160.702,104.172 166.814 C 101.178 170.098,93.200 181.054,93.200 181.881 C 93.200 182.166,93.063 182.400,92.895 182.400 C 92.728 182.400,91.624 184.335,90.442 186.700 C 89.261 189.065,88.048 191.478,87.747 192.062 C 87.446 192.646,87.211 193.366,87.224 193.662 C 87.237 193.958,88.138 192.400,89.226 190.200 C 93.594 181.372,97.372 175.647,103.744 168.200 C 106.485 164.997,113.102 158.068,114.600 156.831 C 115.260 156.287,116.790 154.922,118.000 153.798 C 121.923 150.156,130.601 143.577,136.199 140.000 C 137.156 139.388,145.109 134.586,146.587 133.727 C 148.196 132.792,158.313 127.894,163.400 125.587 C 166.088 124.368,176.039 120.702,178.200 120.135 C 178.640 120.020,180.080 119.603,181.400 119.210 C 189.500 116.797,198.986 114.687,204.800 114.006 C 206.450 113.813,209.780 113.380,212.200 113.044 C 216.788 112.406,224.618 111.735,232.302 111.320 L 236.804 111.077 238.196 108.979 C 240.021 106.230,244.436 102.208,247.200 100.777 C 248.582 100.062,249.099 99.631,248.591 99.619 C 248.146 99.609,246.796 100.243,245.591 101.029 M257.000 114.681 C 252.442 115.635,249.178 118.811,248.655 122.800 L 248.420 124.600 248.945 122.800 C 250.963 115.887,257.320 113.253,262.970 116.987 C 264.773 118.179,266.922 122.578,266.591 124.400 C 264.749 134.542,252.484 135.527,249.154 125.800 C 248.916 125.106,248.874 125.094,248.840 125.716 C 248.772 126.926,250.299 129.458,251.888 130.773 C 257.665 135.550,266.174 132.008,267.068 124.453 C 267.646 119.575,261.609 113.715,257.000 114.681 M223.800 132.667 C 216.064 133.077,192.085 137.053,194.505 137.524 C 194.893 137.599,196.063 137.392,197.105 137.064 C 198.147 136.736,200.123 136.353,201.496 136.214 C 202.869 136.075,204.489 135.793,205.096 135.587 C 205.703 135.381,208.450 134.943,211.200 134.614 C 213.950 134.284,217.425 133.831,218.922 133.606 C 220.420 133.381,224.553 133.153,228.108 133.098 L 234.571 133.000 236.186 136.166 C 244.181 151.844,264.824 155.354,278.332 143.332 C 282.006 140.063,281.955 140.074,285.200 141.892 C 294.012 146.829,298.799 155.269,295.477 160.011 C 295.105 160.543,294.800 161.287,294.800 161.665 C 294.800 163.507,286.874 171.759,276.600 180.613 C 273.740 183.078,270.939 185.523,270.376 186.047 C 269.813 186.571,268.465 187.720,267.381 188.600 C 262.892 192.243,255.752 199.236,252.881 202.800 C 251.729 204.230,250.520 205.685,250.193 206.034 C 249.867 206.382,249.600 206.862,249.600 207.100 C 249.600 207.338,249.443 207.593,249.252 207.667 C 248.353 208.011,243.200 217.549,243.200 218.869 C 243.200 219.183,243.020 219.620,242.800 219.840 C 241.596 221.044,240.022 228.354,239.346 235.877 C 238.760 242.410,241.567 255.807,244.234 259.200 C 244.493 259.530,244.830 260.210,244.983 260.711 C 246.211 264.739,255.475 275.656,262.665 281.550 C 271.189 288.538,284.138 294.262,286.370 292.030 C 287.214 291.186,287.596 275.246,286.853 271.843 C 286.577 270.581,286.580 270.583,282.800 268.798 C 270.210 262.855,261.440 250.308,261.413 238.200 C 261.384 225.559,266.103 218.226,284.200 202.793 C 296.110 192.635,297.565 191.317,303.600 185.224 C 312.350 176.389,317.773 167.076,317.540 161.288 C 317.487 159.978,317.462 159.943,317.332 161.000 C 317.042 163.355,315.868 166.666,313.773 171.031 C 309.848 179.211,304.690 184.583,281.977 204.141 C 272.172 212.584,267.200 218.071,264.289 223.657 C 255.645 240.245,263.818 260.054,283.271 269.661 C 286.608 271.309,286.387 270.456,286.394 281.709 L 286.400 291.617 285.458 292.046 C 281.590 293.809,263.725 283.324,255.600 274.524 C 248.134 266.438,244.840 260.880,241.441 250.632 C 238.805 242.686,239.567 228.316,243.038 220.540 C 243.347 219.846,243.600 219.161,243.600 219.018 C 243.600 217.983,245.955 213.472,248.662 209.320 C 253.030 202.622,258.237 197.199,270.200 186.886 C 292.059 168.042,296.157 163.371,296.694 156.682 C 297.152 150.983,291.777 144.292,283.856 140.700 C 281.665 139.706,281.600 139.729,278.622 142.536 C 265.389 155.010,244.608 151.672,236.593 135.786 L 234.986 132.600 230.593 132.570 C 228.177 132.553,225.120 132.596,223.800 132.667 M189.200 138.460 C 177.754 142.006,161.166 148.983,156.000 152.426 C 155.450 152.792,153.110 154.205,150.800 155.566 C 129.691 167.997,111.355 187.639,106.018 203.537 C 102.376 214.388,102.938 225.705,106.969 222.659 C 112.362 218.585,118.132 215.336,126.600 211.604 C 131.933 209.254,138.295 206.975,141.666 206.206 C 142.912 205.922,144.124 205.570,144.359 205.425 C 144.822 205.139,146.763 204.689,156.600 202.587 C 160.120 201.835,162.100 201.294,161.000 201.385 C 157.125 201.705,153.826 202.427,140.843 205.795 C 139.656 206.103,138.495 206.545,138.263 206.777 C 138.030 207.010,137.381 207.201,136.820 207.202 C 136.259 207.204,135.338 207.446,134.773 207.741 C 134.209 208.035,133.219 208.406,132.573 208.564 C 131.928 208.722,130.410 209.302,129.200 209.852 C 127.990 210.402,126.460 211.096,125.800 211.394 C 120.716 213.691,117.225 215.438,114.995 216.803 C 113.560 217.681,112.297 218.400,112.189 218.400 C 111.981 218.400,108.461 220.813,106.846 222.062 C 103.537 224.623,103.077 214.855,106.044 205.000 C 106.888 202.198,111.186 193.158,112.240 191.969 C 112.548 191.621,112.800 191.209,112.800 191.052 C 112.800 190.751,114.422 188.340,114.854 188.000 C 114.993 187.890,116.105 186.481,117.324 184.869 C 120.990 180.023,129.726 171.287,135.000 167.193 C 136.540 165.997,137.890 164.908,138.000 164.773 C 138.689 163.923,151.012 155.714,153.400 154.514 C 154.500 153.961,155.670 153.281,156.000 153.003 C 156.676 152.434,161.132 150.154,166.800 147.478 C 172.761 144.664,177.376 142.863,184.400 140.611 C 186.930 139.800,189.540 138.953,190.200 138.730 C 190.860 138.506,191.940 138.179,192.600 138.002 C 193.692 137.711,193.710 137.681,192.800 137.668 C 192.250 137.661,190.630 138.017,189.200 138.460 M317.744 155.600 C 317.744 157.690,317.812 158.545,317.894 157.500 C 317.976 156.455,317.976 154.745,317.894 153.700 C 317.812 152.655,317.744 153.510,317.744 155.600 M86.504 195.263 C 83.370 201.495,81.201 218.713,82.783 224.800 C 84.276 230.549,85.172 232.784,88.329 238.647 C 88.849 239.613,88.647 242.000,88.045 242.000 C 87.795 242.000,86.615 244.360,84.545 249.000 C 84.251 249.660,83.738 251.865,83.405 253.900 C 80.755 270.108,89.595 284.283,107.639 292.760 C 111.764 294.698,111.431 294.181,107.200 292.078 C 94.194 285.614,85.905 276.016,83.989 265.201 C 83.126 260.325,83.625 252.570,85.007 249.400 C 85.295 248.740,86.028 247.030,86.636 245.600 C 87.245 244.170,87.978 242.718,88.267 242.374 C 89.500 240.899,89.346 239.433,87.639 236.420 C 86.737 234.830,85.999 233.319,85.998 233.064 C 85.996 232.809,85.722 232.077,85.389 231.437 C 81.576 224.125,82.374 204.270,86.814 195.973 C 87.055 195.524,87.190 194.969,87.114 194.741 C 87.037 194.512,86.763 194.747,86.504 195.263 M171.400 200.059 C 170.080 200.246,167.650 200.565,166.000 200.768 L 163.000 201.136 166.400 200.965 C 189.484 199.799,197.699 200.674,211.400 205.757 C 220.823 209.253,228.309 216.714,230.399 224.694 C 231.364 228.377,231.427 232.497,230.563 235.468 C 229.716 238.380,230.089 238.642,230.992 235.769 C 231.773 233.288,231.728 225.343,230.927 224.327 C 230.699 224.037,230.399 223.200,230.260 222.467 C 229.372 217.790,221.415 209.750,214.600 206.642 C 213.280 206.041,211.660 205.303,211.000 205.002 C 208.251 203.752,205.266 202.768,203.200 202.432 C 201.990 202.235,200.550 201.885,200.000 201.655 C 199.450 201.424,197.200 201.047,195.000 200.816 C 192.800 200.586,189.740 200.227,188.200 200.019 C 184.819 199.563,174.725 199.586,171.400 200.059 M169.800 222.045 C 165.289 222.523,156.916 224.042,160.400 223.751 C 161.830 223.631,164.509 223.278,166.352 222.967 C 171.154 222.155,186.620 222.191,190.649 223.023 C 192.307 223.365,193.874 223.572,194.132 223.483 C 194.858 223.231,190.592 222.381,186.600 221.982 C 182.270 221.549,174.201 221.579,169.800 222.045 M196.000 223.991 C 196.770 224.155,197.907 224.495,198.526 224.745 C 199.145 224.995,199.865 225.190,200.126 225.178 C 201.167 225.129,196.918 223.646,195.800 223.668 C 194.627 223.691,194.631 223.699,196.000 223.991 M155.922 224.211 C 155.806 224.328,154.921 224.592,153.955 224.800 C 152.229 225.171,152.236 225.173,154.379 224.964 C 156.666 224.741,158.583 224.036,156.967 224.012 C 156.508 224.005,156.038 224.095,155.922 224.211 M149.600 225.653 C 149.050 225.874,147.880 226.211,147.000 226.402 C 145.364 226.756,141.526 228.061,137.600 229.597 C 136.390 230.071,134.896 230.646,134.280 230.875 C 133.663 231.105,133.241 231.374,133.341 231.474 C 133.441 231.574,134.485 231.266,135.661 230.790 C 139.042 229.423,139.317 229.322,143.057 228.075 C 145.006 227.425,147.320 226.772,148.200 226.622 C 149.080 226.473,150.250 226.098,150.800 225.790 C 151.946 225.146,151.100 225.050,149.600 225.653 M201.212 225.528 C 205.485 227.427,208.123 230.333,207.271 232.203 C 206.749 233.349,202.058 237.168,201.149 237.186 C 200.791 237.194,200.274 237.470,200.000 237.800 C 199.726 238.130,199.259 238.400,198.962 238.400 C 198.665 238.400,197.652 238.741,196.711 239.158 C 193.242 240.694,189.559 242.000,188.692 242.002 C 188.201 242.004,187.322 242.254,186.739 242.559 C 186.155 242.863,184.587 243.239,183.255 243.394 C 181.923 243.548,180.060 243.929,179.116 244.239 C 177.471 244.780,177.458 244.797,178.800 244.641 C 181.051 244.379,186.859 243.225,188.391 242.736 C 204.467 237.596,210.834 232.761,206.748 228.796 C 205.112 227.209,201.867 225.177,201.050 225.228 C 200.802 225.244,200.875 225.379,201.212 225.528 M127.000 234.358 C 118.270 238.967,118.062 239.488,124.200 241.382 C 126.180 241.993,128.430 242.719,129.200 242.994 C 136.317 245.544,159.526 247.273,168.800 245.946 C 170.450 245.710,173.060 245.382,174.600 245.217 L 177.400 244.917 174.800 244.871 C 173.370 244.846,170.310 245.084,168.000 245.400 C 165.690 245.716,161.010 245.975,157.600 245.975 C 154.190 245.975,149.510 245.716,147.200 245.400 C 144.890 245.084,142.067 244.820,140.926 244.813 C 139.785 244.806,138.345 244.603,137.726 244.362 C 137.107 244.121,135.160 243.691,133.400 243.405 C 131.640 243.120,129.615 242.688,128.900 242.444 C 128.185 242.200,127.015 241.800,126.300 241.555 C 125.585 241.310,124.110 240.861,123.023 240.557 C 118.683 239.345,118.904 239.101,129.189 233.726 C 132.726 231.878,133.175 231.596,132.567 231.606 C 132.365 231.609,129.860 232.848,127.000 234.358 M229.632 238.679 C 229.324 243.336,218.098 253.335,209.000 257.055 C 207.680 257.594,206.240 258.209,205.800 258.421 C 205.360 258.633,203.470 259.332,201.600 259.973 C 197.673 261.321,197.923 261.616,201.916 260.348 C 204.522 259.520,205.696 259.026,212.000 256.103 C 219.126 252.799,225.584 247.161,228.830 241.408 C 229.512 240.200,229.979 238.983,229.867 238.705 C 229.721 238.343,229.654 238.335,229.632 238.679 M104.580 255.223 C 104.066 255.790,103.784 256.847,103.671 258.628 C 103.249 265.245,108.146 270.353,119.800 275.455 C 121.516 276.206,127.748 278.159,130.800 278.902 C 135.848 280.130,139.655 280.878,139.853 280.680 C 140.145 280.388,137.713 279.683,135.400 279.388 C 133.482 279.144,129.824 278.190,126.000 276.937 C 125.010 276.612,123.528 276.203,122.707 276.028 C 121.886 275.853,120.986 275.542,120.707 275.337 C 120.428 275.132,119.120 274.540,117.800 274.022 C 107.988 270.174,102.071 262.191,104.580 256.187 C 105.308 254.443,105.166 254.428,109.703 256.731 C 113.527 258.672,119.511 261.200,120.282 261.200 C 120.510 261.200,121.823 261.560,123.200 262.000 C 124.577 262.440,126.086 262.779,126.552 262.754 C 127.359 262.709,127.361 262.698,126.600 262.514 C 123.408 261.742,118.710 260.216,115.729 258.983 C 112.049 257.461,111.523 257.218,108.141 255.466 C 105.667 254.185,105.527 254.175,104.580 255.223 M195.868 261.650 C 195.466 261.884,194.296 262.232,193.268 262.424 L 191.400 262.773 193.542 262.600 C 194.721 262.505,195.891 262.261,196.142 262.057 C 196.394 261.853,196.960 261.598,197.400 261.489 L 198.200 261.293 197.400 261.259 C 196.960 261.240,196.271 261.416,195.868 261.650 M128.882 263.401 C 129.697 263.700,131.227 264.068,132.282 264.218 C 133.337 264.367,135.280 264.731,136.600 265.025 C 146.026 267.126,171.121 267.124,181.400 265.020 C 182.940 264.705,185.280 264.331,186.600 264.190 C 187.920 264.049,189.540 263.678,190.200 263.365 C 191.550 262.725,191.438 262.732,187.200 263.550 C 168.889 267.081,140.689 266.907,129.840 263.197 C 128.072 262.592,127.191 262.780,128.882 263.401 M233.200 270.179 C 228.314 272.950,222.584 275.355,219.400 275.970 C 218.520 276.140,216.900 276.556,215.800 276.894 C 211.820 278.117,205.255 279.600,203.745 279.618 C 202.895 279.628,201.660 279.900,201.000 280.222 L 199.800 280.808 201.200 280.576 C 201.970 280.449,204.130 280.104,206.000 279.809 C 214.820 278.420,226.894 274.502,232.096 271.342 C 234.913 269.631,235.458 269.834,237.865 273.492 C 238.701 274.761,240.108 276.716,240.992 277.835 C 241.876 278.954,242.870 280.287,243.200 280.798 C 243.530 281.309,244.269 282.283,244.841 282.963 C 247.231 285.801,247.201 286.665,244.664 288.121 C 238.235 291.811,233.420 293.869,225.800 296.184 C 223.820 296.786,221.480 297.518,220.600 297.811 C 219.720 298.104,218.640 298.426,218.200 298.526 C 217.567 298.669,217.545 298.717,218.096 298.754 C 218.736 298.796,224.684 297.136,228.000 295.989 C 232.586 294.403,233.916 293.902,234.932 293.381 C 235.555 293.061,236.275 292.800,236.532 292.799 C 237.465 292.797,246.310 287.868,246.894 287.024 C 247.538 286.093,247.121 284.857,245.500 282.894 C 244.565 281.761,242.360 278.823,240.600 276.364 C 235.319 268.986,235.313 268.981,233.200 270.179 M144.800 281.425 C 147.110 281.713,150.530 282.031,152.400 282.132 C 155.336 282.289,155.472 282.271,153.400 281.996 C 152.080 281.821,149.650 281.488,148.000 281.256 C 146.350 281.025,144.010 280.850,142.800 280.868 C 141.028 280.895,141.417 281.003,144.800 281.425 M190.000 281.413 C 188.350 281.702,186.010 281.983,184.800 282.037 C 182.844 282.124,182.777 282.153,184.200 282.299 C 185.080 282.389,187.510 282.246,189.600 281.980 C 191.690 281.715,194.750 281.368,196.400 281.209 L 199.400 280.921 196.200 280.903 C 194.440 280.894,191.650 281.123,190.000 281.413 M162.925 282.699 C 166.624 282.766,172.564 282.765,176.125 282.699 C 179.686 282.633,176.660 282.579,169.400 282.579 C 162.140 282.579,159.226 282.633,162.925 282.699 M111.200 294.167 C 111.200 294.259,112.055 294.635,113.100 295.004 C 114.145 295.373,115.810 295.998,116.800 296.394 C 120.002 297.674,129.685 300.172,130.452 299.916 C 130.721 299.826,129.515 299.441,127.771 299.060 C 124.079 298.253,119.837 297.039,117.000 295.977 C 115.900 295.566,114.503 295.112,113.896 294.970 C 113.289 294.828,112.694 294.551,112.573 294.356 C 112.355 294.004,111.200 293.845,111.200 294.167 M213.400 299.411 C 212.134 299.829,212.009 299.944,212.800 299.963 C 213.350 299.977,214.520 299.729,215.400 299.412 C 217.509 298.652,215.706 298.651,213.400 299.411 M132.100 300.276 C 132.485 300.376,133.115 300.376,133.500 300.276 C 133.885 300.175,133.570 300.093,132.800 300.093 C 132.030 300.093,131.715 300.175,132.100 300.276 M209.100 300.282 C 209.595 300.378,210.405 300.378,210.900 300.282 C 211.395 300.187,210.990 300.109,210.000 300.109 C 209.010 300.109,208.605 300.187,209.100 300.282 M134.955 300.827 C 135.370 301.088,136.900 301.358,138.355 301.428 C 140.666 301.540,140.773 301.516,139.200 301.243 C 138.210 301.071,136.680 300.801,135.800 300.642 C 134.481 300.405,134.332 300.437,134.955 300.827 M206.326 300.607 C 206.213 300.721,205.058 300.983,203.760 301.190 L 201.400 301.565 204.045 301.433 C 206.586 301.306,209.398 300.442,207.367 300.412 C 206.908 300.405,206.440 300.493,206.326 300.607 M145.600 302.389 C 157.098 304.478,198.608 303.985,200.793 301.734 C 201.045 301.474,198.379 301.686,191.000 302.513 C 179.739 303.775,157.034 303.720,149.200 302.411 C 147.990 302.209,145.740 301.950,144.200 301.835 C 141.625 301.643,141.737 301.687,145.600 302.389 " stroke="none" fill="#94bc7c" fill-rule="evenodd"></path></g></svg>